<?xml version="1.0" encoding="UTF-8"?>
<svg width="577px" height="41px" viewBox="0 0 577 41" version="1.1" xmlns="http://www.w3.org/2000/svg" xmlns:xlink="http://www.w3.org/1999/xlink">
    <title>logo</title>
    <g id="Page-1" stroke="none" stroke-width="1" fill="none" fill-rule="evenodd">
        <g id="logo" transform="translate(-34.000000, -34.000000)" fill="#ffffff">
            <path d="M47.1293789,45.697505 C47.3402214,44.6677387 48.2566483,43.88387 49.3374083,43.88387 L58.2735633,43.88387 C59.4682776,43.88387 60.0004064,43.3465394 60.7104751,42.3038069 L64.6485251,35.1020082 C65.0195751,34.4238785 65.7452751,34 66.5358064,34 L99.4208814,34 C100.267788,34 100.972219,34.6348261 101.040125,35.4541368 C102.362888,51.4209769 104.039788,62.243875 114.657506,72.0403125 C115.771425,73.0681312 115.05905,75 113.521806,75 L35.6805363,75 C34.1411593,75 33.4274659,73.0630063 34.5429606,72.03365 C42.1435226,65.0198312 45.1886695,57.3467069 46.7971764,47.4155844 C46.8777158,46.91828 46.976372,46.4400406 47.075387,45.9599819 C47.0934014,45.8726006 47.1114414,45.7851425 47.1293789,45.697505 Z M145.069769,74.7745 C144.184425,74.7745 143.466925,74.0772437 143.466925,73.217525 L143.466925,45.3749119 C143.466925,44.5150137 142.749425,43.8179369 141.864338,43.8179369 L127.014906,43.8179369 C126.129819,43.8179369 125.412319,43.12086 125.412319,42.2609875 L125.412319,35.7827517 C125.412319,34.9228664 126.129819,34.2257898 127.014906,34.2257898 L174.410906,34.2257898 C175.594781,34.2257898 176.370194,35.430203 175.8518,36.4643921 L172.6046,42.9426125 C172.336306,43.4781237 171.776913,43.8179369 171.163706,43.8179369 L158.3284,43.8179369 C157.443313,43.8179369 156.725813,44.5150137 156.725813,45.3748862 L156.725813,73.217525 C156.725813,74.0772437 156.008313,74.7745 155.123225,74.7745 L145.069769,74.7745 Z M202.55715,58.2061694 C203.759219,58.2061694 204.53335,56.9683281 203.979594,55.9318737 L198.523006,45.7194656 C197.919025,44.58907 196.249556,44.60301 195.665819,45.7433225 L190.436525,55.9557306 C189.9066,56.9907756 190.6815,58.2061694 191.871269,58.2061694 L202.55715,58.2061694 Z M214.971438,74.7745 C214.372581,74.7745 213.823438,74.4498313 213.548225,73.9332313 L210.495263,68.2034812 C210.219794,67.6868812 209.670906,67.3622125 209.07205,67.3622125 L185.66105,67.3622125 C185.018375,67.3622125 184.437969,67.7353125 184.186331,68.309825 L181.77015,73.8268875 C181.518513,74.4014 180.938106,74.7745 180.295431,74.7745 L170.566131,74.7745 C169.377388,74.7745 168.602231,73.5611562 169.130106,72.5261625 L188.222013,35.0915174 C188.492356,34.5612644 189.048931,34.2257898 189.658038,34.2257898 L204.745013,34.2257898 C205.334644,34.2257898 205.876869,34.5404927 206.156181,35.0450772 L226.887319,72.4797813 C227.461575,73.5170813 226.688469,74.7745 225.475894,74.7745 L214.971438,74.7745 Z M231.002438,73.217525 C231.002438,74.0772437 231.719938,74.7745 232.605025,74.7745 L267.280775,74.7745 C278.865838,74.7745 284.658369,70.886675 284.658369,63.1112812 L284.658369,62.3481687 C284.658369,60.6769063 284.338825,59.1871712 283.699225,57.8791687 C283.059881,56.5711406 282.213488,55.5537769 281.1603,54.8271031 C280.107113,54.0640931 279.147969,53.4827387 278.282869,53.0830656 C278.056856,52.9786437 277.829563,52.8804231 277.600988,52.7884038 C277.071575,52.5753062 277.042363,51.6528575 277.549481,51.3935581 C278.188825,51.0665575 278.903506,50.61238 279.693525,50.0310256 C280.483288,49.4133606 281.103925,48.6140144 281.555438,47.6329869 C282.044363,46.6156487 282.288825,45.4893019 282.288825,44.2539462 L282.288825,43.4909362 C282.288825,40.7658969 281.122631,38.5495137 278.790756,36.8418381 C276.458625,35.0978006 272.5093,34.2257898 266.942269,34.2257898 L232.605025,34.2257898 C231.719938,34.2257898 231.002438,34.9228639 231.002438,35.7827517 L231.002438,73.217525 Z M245.751163,42.7824306 L264.685475,42.7824306 C267.732288,42.7824306 269.255694,43.8542731 269.255694,45.9979838 L269.255694,46.1069669 C269.255694,48.2870137 267.732288,49.3770244 264.685475,49.3770244 L245.751163,49.3770244 C244.865819,49.3770244 244.148319,48.6799475 244.148319,47.8200494 L244.148319,44.33938 C244.148319,43.4795075 244.865819,42.7824306 245.751163,42.7824306 Z M245.751163,57.9881519 L265.814,57.9881519 C269.2744,57.9881519 271.0046,59.2416756 271.0046,61.7488 L271.0046,61.9666125 C271.0046,63.0203125 270.628425,63.9469125 269.876331,64.7461562 C269.123981,65.5456562 267.769956,65.9454062 265.814,65.9454062 L245.751163,65.9454062 C244.865819,65.9454062 244.148319,65.24815 244.148319,64.3884312 L244.148319,59.5451269 C244.148319,58.6852287 244.865819,57.9881519 245.751163,57.9881519 Z M289.92405,35.7827517 C289.92405,34.9228639 290.642063,34.2257898 291.526125,34.2257898 L301.468625,34.2257898 C302.352688,34.2257898 303.070188,34.9228664 303.070188,35.7827517 L303.070188,63.1348562 C303.070188,63.994575 303.787688,64.6918312 304.67175,64.6918312 L329.033438,64.6918312 C329.920063,64.6918312 330.637563,65.3888312 330.637563,66.2488063 L330.637563,73.217525 C330.637563,74.0772437 329.920063,74.7745 329.033438,74.7745 L291.526125,74.7745 C290.642063,74.7745 289.92405,74.0772437 289.92405,73.217525 L289.92405,35.7827517 Z M338.6915,34.2257898 C337.804875,34.2257898 337.087375,34.9228639 337.087375,35.7827517 L337.087375,73.217525 C337.087375,74.0772437 337.804875,74.7745 338.6915,74.7745 L380.283438,74.7745 C381.1675,74.7745 381.885,74.0772437 381.885,73.217525 L381.885,66.9027562 C381.885,66.0427812 381.1675,65.3457813 380.283438,65.3457813 L351.668,65.3457813 C350.781375,65.3457813 350.063875,64.6487812 350.063875,63.7888062 L350.063875,60.2535812 C350.063875,59.3937344 350.781375,58.6966575 351.668,58.6966575 L378.986813,58.6966575 C379.870875,58.6966575 380.588375,57.9995806 380.588375,57.1397081 L380.588375,50.9884781 C380.588375,50.1286056 379.870875,49.4315287 378.986813,49.4315287 L351.668,49.4315287 C350.781375,49.4315287 350.063875,48.7344519 350.063875,47.8745537 L350.063875,44.9933812 C350.063875,44.1335087 350.781375,43.4364319 351.668,43.4364319 L379.719688,43.4364319 C380.60375,43.4364319 381.32125,42.739355 381.32125,41.8794569 L381.32125,35.7827517 C381.32125,34.9228664 380.60375,34.2257898 379.719688,34.2257898 L338.6915,34.2257898 Z M387.871,35.7827517 C387.871,34.9228639 388.5885,34.2257898 389.475125,34.2257898 L399.415063,34.2257898 C400.301688,34.2257898 401.019188,34.9228664 401.019188,35.7827517 L401.019188,63.1348562 C401.019188,63.994575 401.736688,64.6918312 402.62075,64.6918312 L426.536563,64.6918312 C427.725563,64.6918312 428.499438,65.9054313 427.971563,66.940425 L424.414813,73.9091437 C424.143188,74.4390688 423.587125,74.7745 422.979813,74.7745 L389.475125,74.7745 C388.5885,74.7745 387.871,74.0772437 387.871,73.217525 L387.871,35.7827517 Z M466.670438,55.9318737 C467.2265,56.9683281 466.450063,58.2061694 465.24825,58.2061694 L454.562625,58.2061694 C453.373625,58.2061694 452.59975,56.9907756 453.127625,55.9557562 L458.357688,45.7433225 C458.941938,44.60301 460.610125,44.58907 461.214875,45.7194656 L466.670438,55.9318737 Z M476.241375,73.9332313 C476.515563,74.4498313 477.063938,74.7745 477.663563,74.7745 L488.16725,74.7745 C489.379313,74.7745 490.153188,73.5170813 489.579188,72.4797813 L468.848563,35.0450772 C468.56925,34.5404927 468.026,34.2257898 467.436625,34.2257898 L452.338375,34.2257898 C451.736188,34.2257898 451.182688,34.5548607 450.911063,35.0772878 L431.325875,72.5120687 C430.782625,73.5478313 431.5565,74.7745 432.753188,74.7745 L442.518875,74.7745 C443.12875,74.7745 443.684813,74.4390688 443.953875,73.9086312 L446.852063,68.2280813 C447.121125,67.6979 447.67975,67.3622125 448.287063,67.3622125 L471.764688,67.3622125 C472.36175,67.3622125 472.912688,67.6868812 473.186875,68.2034812 L476.241375,73.9332313 Z M493.159,35.7827517 C493.159,34.9228639 493.8765,34.2257898 494.763125,34.2257898 L507.175875,34.2257898 C507.593563,34.2257898 507.998438,34.3854641 508.295688,34.6705576 L531.906563,57.1395031 C532.91875,58.1048225 534.6305,57.4067206 534.6305,56.0273012 L534.6305,35.7827517 C534.6305,34.9228639 535.348,34.2257898 536.232063,34.2257898 L546.002875,34.2257898 C546.8895,34.2257898 547.607,34.9228664 547.607,35.7827517 L547.607,73.217525 C547.607,74.0772437 546.8895,74.7745 546.002875,74.7745 L535.278813,74.7745 C534.863688,74.7745 534.461375,74.61665 534.164125,74.3345188 L508.856875,50.4694437 C507.839563,49.5110687 506.138063,50.2106825 506.138063,51.5866425 L506.138063,73.217525 C506.138063,74.0772437 505.420563,74.7745 504.533938,74.7745 L494.763125,74.7745 C493.8765,74.7745 493.159,74.0772437 493.159,73.217525 L493.159,35.7827517 Z M554.044,73.217525 C554.044,74.0772437 554.7615,74.7745 555.645563,74.7745 L580.84775,74.7745 C585.549938,74.7745 589.706313,74.3565562 593.316875,73.520925 C596.927438,72.6852937 599.784625,71.6315937 601.891,70.359825 C603.997375,69.0880562 605.709125,67.5438937 607.02625,65.7273375 C608.381813,63.910525 609.283813,62.1664875 609.734813,60.495225 C610.185813,58.7874981 610.411313,56.9708137 610.411313,55.0451206 L610.411313,53.4100919 C610.411313,51.7750631 610.22425,50.2490431 609.847563,48.8320062 C609.509313,47.3786587 608.945563,45.9071431 608.15375,44.4174338 C607.3645,42.92775 606.219063,41.6015794 604.712313,40.4388706 C603.208125,39.2398769 601.404125,38.1680087 599.29775,37.2233431 C597.191375,36.2423207 594.557125,35.4974737 591.397563,34.9887996 C588.238,34.4801254 584.70175,34.2257898 580.791375,34.2257898 L555.645563,34.2257898 C554.7615,34.2257898 554.044,34.9228639 554.044,35.7827517 L554.044,73.217525 Z M567.189625,45.3748863 C567.189625,44.5150138 567.907125,43.8179369 568.79375,43.8179369 L580.842625,43.8179369 C592.089438,43.8179369 597.714125,47.2878181 597.714125,54.2276062 L597.714125,54.5546069 C597.714125,61.5307312 592.089438,65.0188062 580.842625,65.0188062 L568.79375,65.0188062 C567.907125,65.0188062 567.189625,64.3218062 567.189625,63.4618312 L567.189625,45.3748863 Z"></path>
        </g>
    </g>
</svg>
