<svg id="Layer_1" data-name="Layer 1" xmlns="http://www.w3.org/2000/svg" viewBox="0 0 1080 1080"><defs><style>.cls-1{fill:#000;}</style></defs><path class="cls-1" d="M540,25.81C256,25.81,25.81,256,25.81,540S256,1054.19,540,1054.19,1054.19,824,1054.19,540,824,25.81,540,25.81ZM443.11,701.68c-26.91-11.92-144-56-293.11,2.49a6.42,6.42,0,0,1-8.17-8.66l56.26-122.76a6.42,6.42,0,0,0-1.82-7.69l-41.63-33.3a6.43,6.43,0,0,1,3.84-11.44l162.38-4.51c7.07-.19,8.68-10,2-12.45l-74.52-27.45a6.43,6.43,0,0,1-3.52-8.91l25.78-51.56a6.15,6.15,0,0,1,1.76-2.16c12.41-9.76,125.53-92.11,295.92,4a6.41,6.41,0,0,1,2.7,8.16l-119.42,273A6.42,6.42,0,0,1,443.11,701.68ZM935,561.81,799.62,581.15a4.41,4.41,0,0,0-1.52,8.21l38.33,21.29a4.41,4.41,0,0,1,1.87,5.66l-40.89,90a4.39,4.39,0,0,1-5.83,2.18c-24.67-11.37-160.25-67.91-296.39-6.12a4.39,4.39,0,0,1-5.87-5.75L608.48,424.2a4.42,4.42,0,0,1,1.54-1.86c12.83-8.89,142.52-93.13,309.6,10.53a4.42,4.42,0,0,1,1.68,5.57l-40.85,89.87a4.4,4.4,0,0,0,2.52,6l52.89,19.05A4.4,4.4,0,0,1,935,561.81Z"/></svg>