<svg id="Layer_1" data-name="Layer 1" xmlns="http://www.w3.org/2000/svg" viewBox="0 0 1080 1080"><defs><style>.cls-1{fill:#fff;}</style></defs><path class="cls-1" d="M540,25.81C256,25.81,25.81,256,25.81,540S256,1054.19,540,1054.19,1054.19,824,1054.19,540,824,25.81,540,25.81Zm0,865.39C346,891.2,188.8,734,188.8,540S346,188.8,540,188.8,891.2,346,891.2,540,734,891.2,540,891.2Z"/><path class="cls-1" d="M544.24,381.13c-2.67,14.25-7.35,45-13.7,82.93l-95.18-10.64a10.49,10.49,0,0,0-11.58,9.25l-1.79,16a10.47,10.47,0,0,0,9.25,11.57l93,10.4c-2.65,14.94-5.51,30.45-8.57,46.14l-91-10.18a10.47,10.47,0,0,0-11.57,9.25l-1.79,16a10.46,10.46,0,0,0,9.24,11.57l87.72,9.81c-16.63,77.85-37.81,151.55-61.93,169.27-27.67,20.3-39.22.32-41.77-9.84-8.12-32.39-53.42-28.76-49.31,8.22s57,47.81,90.4,37c38.57-12.51,68.52-56.09,88.09-118,6.43-20.38,13.41-49.37,20.34-81.46l91.75,10.25a10.46,10.46,0,0,0,11.57-9.24l1.8-16a10.47,10.47,0,0,0-9.25-11.57L561.65,552c3.1-15.32,6.13-30.83,9.05-46.09l85.83,9.59a10.46,10.46,0,0,0,11.57-9.24l1.79-16a10.47,10.47,0,0,0-9.24-11.58l-83.06-9.28c9.68-51.93,17.26-94.8,20.07-104.63,8.21-28.76,41.09-45.2,65.74-24.65,18.88,15.72,27.57,26.65,45.19,21.66,10.1-2.87,17.17-9,16.45-21.66C719.11,236.11,568.89,249.64,544.24,381.13Z"/></svg>