<svg id="Layer_1" data-name="Layer 1" xmlns="http://www.w3.org/2000/svg" viewBox="0 0 1080 1080"><defs><style>.cls-1{fill:#162929;}</style></defs><path class="cls-1" d="M540,25.81C256,25.81,25.81,256,25.81,540S256,1054.19,540,1054.19,1054.19,824,1054.19,540,824,25.81,540,25.81ZM275,327.58a62.43,62.43,0,1,1-40.33,78.55A62.43,62.43,0,0,1,275,327.58Zm641.47,386c-17.59,3.51-78.23,31.58-109.76,44.09-60.25,23.9-74.91,33.87-128.54,51.61-39.24,13-189.07,12.53-249.18,2.18-13.09-2.08-24.89-5.28-28.79-8.89-2.05-1.9-25-24.11-52.36-50.75-68.07-31.3-172.46-67.34-180.54-81.23-10.39-17.88,26.09-36,56-40.42-15.69-15.41-34.44-35-43.77-50.16a19.3,19.3,0,0,1,4.49-25.15c15.15-12.1,53.25-7,75.88,11,20.79,16.51,73.83,54,106.9,77.22-.55-14.6-.86-25.71-.6-27.53.66-4.74-1.65-70.21,6.79-101.8a19.3,19.3,0,0,1,21.37-14c19.21,2.71,41.61,34,44.08,62.75,1.61,18.81,6.18,51.29,10.55,80.23,10.45-.59,21.09-1,31-1.6,19.78-20.77,43.55-39,64-53,.36-3.55.19-6.18-.55-7.14-10.23-13.25-31.72-40.44-57.85-69.37-15.82-17.53-32.48-33.13-40.42-47.84-7-12.92,3.39-28.29,17.94-26.33,48.4,6.53,113.1,69.07,124.67,69.36,22.38.54,72.19-1.37,97.39,1.13,41.1,4.09,107.46,18.2,153.44,40.18,2.7,1.29,73.18-10,73.18-10,10.73-.2,19.19,11.15,18,21.82l-3.29,128.33C925.52,698.22,927.45,711.41,916.51,713.59Z"/></svg>