<svg id="Layer_1" data-name="Layer 1" xmlns="http://www.w3.org/2000/svg" viewBox="0 0 1080 1080"><defs><style>.cls-1{fill:#fff;}</style></defs><path class="cls-1" d="M540,25.81C256,25.81,25.81,256,25.81,540S256,1054.19,540,1054.19,1054.19,824,1054.19,540,824,25.81,540,25.81ZM463.53,193.16l95.83-38.25,85.4,79.6-27.29,97.57-96.75,37.29-86.56-79.6ZM746.89,776.63C727,809.09,642.14,861.46,615.14,882.39a13.9,13.9,0,0,0-5.39,11v16a9.16,9.16,0,0,1-9.16,9.16H440.65a9.13,9.13,0,0,1-9.16-8.89,317.34,317.34,0,0,0-3.14-36.36c-3.82-26.73-42.73-44-58-68.87s-25-115.46-16-158.35,28.59-47.86,28.05-80.59c-.84-51.06.17-65.18-9.38-91.28s-6.15-42.57,12.78-47.66c26.41-7.11,65.65,57.33,69.51,71.95s1,38.33,4.79,62.28,28.74,14.37,28.74,14.37c21.38-49.64,146.68-46.77,146.68-46.77,1.92-20.12-24-37.54-43.54-38.9-2-.13-60.42,1.69-80.62-6.31-21.79-8.62-49.56-25.42-38.81-43.11,9.7-15.95,126.28-16.14,145.53-16.77,16-.53,41.35,13.45,41.35,13.45s1.93-56.74,11.48-90.47c11.24-39.72,46.08-26.49,46.08-11.21,0,14.8,3.46,148.94,4.73,150.22s21.43,7.83,27.07,18.7C762.75,530.91,766.81,744.18,746.89,776.63Z"/></svg>