<svg id="Layer_1" data-name="Layer 1" xmlns="http://www.w3.org/2000/svg" viewBox="0 0 1080 1080"><defs><style>.cls-1{fill:#fff;}</style></defs><path class="cls-1" d="M540,25.81C256,25.81,25.81,256,25.81,540S256,1054.19,540,1054.19,1054.19,824,1054.19,540,824,25.81,540,25.81Zm290.14,524c-163.69,46.8-270.35,218.44-279.76,356.73-.69,10.17-20.13,10.18-20.76,0-8.62-138.29-125-315.14-279.76-356.73-8.44-2.27-8.42-17.25,0-19.56,213-58.47,271.14-250.92,279.86-356.93.82-10.07,19.67-10.06,20.57,0,9.5,106,58,298.46,279.85,356.93C838.59,532.5,838.55,547.44,830.14,549.84Z"/></svg>