<svg id="Layer_1" data-name="Layer 1" xmlns="http://www.w3.org/2000/svg" viewBox="0 0 1080 1080"><defs><style>.cls-1{fill:#162929;}.cls-2{stroke:#162929;stroke-linecap:round;stroke-miterlimit:10;stroke-width:43.07px;}</style></defs><path class="cls-1" d="M540,25.81C256,25.81,25.81,256,25.81,540S256,1054.19,540,1054.19,1054.19,824,1054.19,540,824,25.81,540,25.81ZM830.25,742.43H249.75a61.76,61.76,0,0,1-59.68-77.63L264.9,383.45a61.75,61.75,0,0,1,59.68-45.88H755.42a61.76,61.76,0,0,1,59.68,45.88L889.93,664.8A61.76,61.76,0,0,1,830.25,742.43Z"/><line class="cls-2" x1="371.38" y1="438.28" x2="508.69" y2="538.3"/><line class="cls-2" x1="371.38" y1="641.72" x2="508.69" y2="541.7"/><line class="cls-2" x1="532.71" y1="640.68" x2="708.62" y2="640.68"/></svg>