<svg width="132" height="132" viewBox="0 0 132 132" fill="none" xmlns="http://www.w3.org/2000/svg">
<rect width="132" height="132" fill="#75B6B5"/>
<path d="M58.0565 24C47.3449 24.1044 37.0483 27.9455 29.2736 34.0723C21.4985 40.1992 16.1104 48.7624 16 58.2745C16 73.675 23.0401 84.001 28.7579 93.8558C29.2521 94.7129 30.1514 95.326 31.1304 95.4718C53.1149 98.752 72.6911 100.998 89.863 107.4C90.6219 107.68 91.4851 107.668 92.2355 107.367C96.5884 105.642 101.828 102.173 106.3 98.4283C110.074 95.1265 114.91 90.6677 115 85.9151C112.785 70.0212 107.492 54.7731 98.219 43.2525C88.9461 31.7328 75.4979 24.1029 58.0883 24.0007H58.0545L58.0565 24ZM87.9728 41.9449C89.7828 43.6122 91.48 45.4115 93.0623 47.3766C100.37 56.4546 105.152 68.6382 107.608 81.7538C90.5456 76.306 71.5612 72.7748 50.7318 72.5063L47.7402 63.1558C61.2801 57.3104 75.6411 50.5375 87.973 41.9453L87.9728 41.9449Z" fill="#101E1E"/>
</svg>
