<svg width="21" height="20" viewBox="0 0 21 20" fill="none" xmlns="http://www.w3.org/2000/svg">
<path d="M9.24536 6.45037V13.6174H19.996V6.45037H9.24536ZM13.6173 11.4673C12.8289 11.4673 12.1839 10.8223 12.1839 10.0339C12.1839 9.24553 12.8289 8.60049 13.6173 8.60049C14.4057 8.60049 15.0507 9.24553 15.0507 10.0339C15.0507 10.8223 14.4057 11.4673 13.6173 11.4673Z" fill="#162929"/>
<path d="M20.0678 4.6586H8.45715C7.88378 4.6586 7.45376 5.08862 7.45376 5.66198V14.3341C7.45376 14.9075 7.88378 15.3375 8.45715 15.3375H20.0678V17.9177C20.0678 19.0644 19.1361 19.9961 17.9894 19.9961H2.07845C0.93172 20.0678 0 19.1361 0 17.9893V2.07845C0 0.931719 0.93172 0 2.07845 0H17.9894C19.1361 0 20.0678 0.931719 20.0678 2.07845V4.6586Z" fill="#162929"/>
<path d="M9.24536 6.45037V13.6174H19.996V6.45037H9.24536ZM13.6173 11.4673C12.8289 11.4673 12.1839 10.8223 12.1839 10.0339C12.1839 9.24553 12.8289 8.60049 13.6173 8.60049C14.4057 8.60049 15.0507 9.24553 15.0507 10.0339C15.0507 10.8223 14.4057 11.4673 13.6173 11.4673Z" fill="#162929"/>
<path d="M9.24536 6.45037V13.6174H19.996V6.45037H9.24536ZM13.6173 11.4673C12.8289 11.4673 12.1839 10.8223 12.1839 10.0339C12.1839 9.24553 12.8289 8.60049 13.6173 8.60049C14.4057 8.60049 15.0507 9.24553 15.0507 10.0339C15.0507 10.8223 14.4057 11.4673 13.6173 11.4673Z" fill="#162929"/>
</svg>
