<svg
  width="56"
  height="56"
  viewBox="0 0 56 56"
  fill="inherit"
  xmlns="http://www.w3.org/2000/svg"
>
<path
    d="M3.3011 31.512L3.4953 31.2069L15.2016 12.8939C15.3726 12.6257 15.7749 12.6535 15.9043 12.9447C17.86 17.3277 19.5475 22.7786 18.7569 26.1721C18.4194 27.5683 17.4948 29.4593 16.4545 31.2069C16.3204 31.4612 16.1725 31.7109 16.0153 31.9513C15.9413 32.0622 15.8165 32.127 15.6824 32.127H3.6432C3.3196 32.127 3.1301 31.7756 3.3011 31.512Z"
    fill="inherit"
  />
<path
    d="M55.48 34.9149V37.8137C55.48 37.9801 55.3783 38.1281 55.2304 38.1928C54.3242 38.5812 51.2219 40.0052 49.932 41.799C46.6402 46.3807 44.1251 52.932 38.5031 52.932H15.049C6.7362 52.932 0 46.1727 0 37.8322V37.564C0 37.3421 0.1803 37.1618 0.4023 37.1618H13.477C13.7359 37.1618 13.9255 37.4022 13.9024 37.6565C13.8099 38.5072 13.9671 39.3764 14.3693 40.167C15.1461 41.7435 16.755 42.7283 18.4934 42.7283H24.966V37.675H18.5673C18.2391 37.675 18.0449 37.2959 18.2345 37.0277C18.3038 36.9214 18.3824 36.8104 18.4656 36.6856C19.0713 35.8257 19.9358 34.4895 20.7958 32.9684C21.3829 31.9421 21.9516 30.8463 22.4093 29.746C22.5018 29.5472 22.5758 29.3438 22.6497 29.1449C22.7746 28.7936 22.904 28.4653 22.9965 28.1371C23.0889 27.8597 23.1629 27.5684 23.2369 27.2956C23.4542 26.3617 23.5467 25.3723 23.5467 24.3459C23.5467 23.9437 23.5282 23.523 23.4912 23.1207C23.4727 22.6815 23.4172 22.2423 23.3617 21.8031C23.3247 21.4147 23.2554 21.031 23.1814 20.6288C23.0889 20.0416 22.9595 19.4591 22.8115 18.8719L22.7607 18.65C22.6497 18.2478 22.5573 17.864 22.4278 17.4618C22.0626 16.1996 21.6418 14.9698 21.198 13.8186C21.0362 13.3609 20.8512 12.9217 20.6663 12.4825C20.3935 11.8213 20.1161 11.2203 19.8619 10.6516C19.7324 10.3927 19.6214 10.1569 19.5105 9.9165C19.3857 9.6437 19.2562 9.371 19.1268 9.112C19.0343 8.9132 18.9279 8.7283 18.854 8.5434L18.0634 7.0824C17.9524 6.8836 18.1374 6.6478 18.3546 6.7079L23.3016 8.0487H23.3155C23.3247 8.0487 23.3294 8.0533 23.334 8.0533L23.9859 8.2336L24.7025 8.437L24.966 8.511V5.5706C24.966 4.1512 26.1034 3 27.5089 3C28.2116 3 28.8496 3.2866 29.3073 3.7536C29.765 4.2206 30.0517 4.8586 30.0517 5.5706V9.935L30.5787 10.0829C30.6204 10.0968 30.662 10.1153 30.699 10.143C30.8284 10.2401 31.0133 10.3835 31.2491 10.5591C31.4341 10.7071 31.6329 10.8874 31.8733 11.0723C32.3495 11.4561 32.9181 11.9508 33.5423 12.5194C33.7087 12.6628 33.8706 12.8107 34.0185 12.9587C34.823 13.7076 35.7245 14.5861 36.5845 15.557C36.8249 15.8297 37.0607 16.1071 37.3011 16.3984C37.5415 16.6943 37.7958 16.9856 38.0177 17.2769C38.309 17.6652 38.6233 18.0674 38.8961 18.4882C39.0256 18.687 39.1735 18.8904 39.2984 19.0892C39.6497 19.6209 39.9595 20.1711 40.2554 20.7212C40.3802 20.9755 40.5097 21.2529 40.6206 21.5257C40.9489 22.2608 41.2078 23.0098 41.3742 23.7588C41.4251 23.9206 41.4621 24.0963 41.4806 24.2535V24.2904C41.536 24.5124 41.5545 24.7482 41.573 24.9886C41.647 25.756 41.61 26.5235 41.4436 27.2956C41.3742 27.6239 41.2818 27.9336 41.1708 28.2619C41.0598 28.5763 40.9489 28.9045 40.8056 29.2143C40.5282 29.8569 40.1999 30.4996 39.8115 31.1006C39.6867 31.3225 39.5388 31.5583 39.3908 31.7802C39.229 32.016 39.0626 32.238 38.9146 32.4553C38.7112 32.7327 38.4939 33.0239 38.272 33.2828C38.0732 33.5556 37.8697 33.8284 37.6478 34.0688C37.3381 34.434 37.0422 34.7808 36.7324 35.1137C36.5475 35.331 36.3487 35.5529 36.1452 35.7517C35.9464 35.9736 35.743 36.1724 35.5581 36.3573C35.2483 36.6671 34.9894 36.9075 34.7721 37.1063L34.2635 37.5733C34.1896 37.638 34.0925 37.675 33.9908 37.675H30.0517V42.7283H35.0079C36.1175 42.7283 37.1716 42.3353 38.0223 41.6141C38.3136 41.3598 39.585 40.2594 41.0876 38.5997C41.1384 38.5442 41.2032 38.5026 41.2771 38.4841L54.9668 34.5265C55.2211 34.4525 55.48 34.6467 55.48 34.9149Z"
    fill="inherit"
  />
</svg>
