<svg width="20" height="20" viewBox="0 0 20 20" fill="none" xmlns="http://www.w3.org/2000/svg">
<g clip-path="url(#clip0_41_7884)">
<path d="M10 0C4.467 0 0 4.467 0 10C0 15.533 4.467 20 10 20C15.533 20 20 15.533 20 10C20 4.467 15.533 0 10 0ZM4.933 10.333L4.978 10.267L7.578 6.2C7.622 6.133 7.711 6.156 7.733 6.222C8.178 7.2 8.533 8.4 8.378 9.156C8.311 9.466 8.088 9.889 7.867 10.266C7.844 10.333 7.8 10.378 7.777 10.422C7.756 10.444 7.733 10.467 7.711 10.467H5.044C4.934 10.467 4.889 10.4 4.934 10.333H4.933ZM16.533 11.733C16.533 11.778 16.511 11.8 16.489 11.823C16.289 11.911 15.6 12.223 15.311 12.623C14.578 13.644 14.022 15.089 12.778 15.089H7.533C5.689 15.089 4.2 13.578 4.2 11.733V11.667C4.2 11.622 4.244 11.577 4.289 11.577H7.2C7.267 11.577 7.289 11.622 7.289 11.689C7.267 11.889 7.311 12.067 7.4 12.244C7.578 12.6 7.933 12.822 8.311 12.822H9.756V11.69H8.333C8.267 11.69 8.223 11.601 8.267 11.557C8.289 11.534 8.289 11.512 8.311 11.49C8.444 11.29 8.644 11.001 8.822 10.668C8.96262 10.4426 9.08181 10.2046 9.178 9.957C9.2 9.912 9.222 9.867 9.222 9.823C9.244 9.734 9.289 9.668 9.289 9.601C9.311 9.534 9.333 9.468 9.333 9.423C9.378 9.223 9.4 9.001 9.4 8.779C9.4 8.689 9.4 8.601 9.378 8.512C9.378 8.423 9.356 8.312 9.356 8.223C9.356 8.134 9.333 8.045 9.311 7.957C9.29201 7.82151 9.26225 7.68776 9.222 7.557L9.2 7.51L9.133 7.243C9.05102 6.97416 8.96232 6.70741 8.867 6.443C8.822 6.333 8.8 6.243 8.756 6.155C8.689 5.999 8.622 5.865 8.578 5.755C8.56178 5.69618 8.5308 5.64248 8.488 5.599C8.467 5.532 8.422 5.488 8.4 5.421L8.333 5.288L8.223 4.91C8.2 4.866 8.244 4.821 8.289 4.821L9.378 5.111L9.688 5.199L9.756 5.221V4.577C9.7541 4.42735 9.81114 4.28296 9.91479 4.175C10.0184 4.06705 10.1604 4.00419 10.31 4C10.466 4 10.599 4.067 10.71 4.178C10.7622 4.23032 10.803 4.29286 10.8298 4.3617C10.8566 4.43053 10.869 4.50418 10.866 4.578V5.556L10.976 5.578C10.976 5.578 10.999 5.578 10.999 5.6C11.021 5.622 11.066 5.644 11.132 5.689C11.177 5.711 11.222 5.756 11.266 5.8C11.376 5.889 11.488 6 11.643 6.111C11.688 6.133 11.71 6.178 11.755 6.2C11.932 6.356 12.132 6.556 12.332 6.778C12.377 6.844 12.443 6.911 12.488 6.956C12.532 7.022 12.599 7.089 12.643 7.156L12.843 7.422C12.866 7.467 12.91 7.512 12.933 7.556C13.021 7.666 13.088 7.8 13.155 7.911C13.177 7.978 13.221 8.022 13.243 8.089C13.31 8.244 13.377 8.422 13.421 8.578C13.4387 8.61182 13.4463 8.64999 13.443 8.688C13.4616 8.7378 13.4694 8.79096 13.466 8.844C13.488 9.022 13.466 9.178 13.443 9.356C13.4179 9.42905 13.3959 9.50312 13.377 9.578C13.3528 9.65423 13.3227 9.72845 13.287 9.8C13.221 9.933 13.155 10.089 13.066 10.222C13.043 10.267 12.999 10.333 12.976 10.378C12.932 10.422 12.91 10.488 12.866 10.533C12.821 10.6 12.776 10.667 12.732 10.711C12.688 10.778 12.643 10.822 12.599 10.889C12.532 10.978 12.466 11.044 12.399 11.111L12.266 11.244L12.132 11.378C12.0795 11.4366 12.0201 11.4887 11.955 11.533L11.843 11.644C11.821 11.667 11.799 11.667 11.777 11.667H10.887V12.8H12C12.244 12.8 12.489 12.711 12.667 12.556C12.733 12.489 13.022 12.244 13.356 11.889C13.378 11.867 13.378 11.867 13.4 11.867L16.444 10.977C16.511 10.956 16.556 11 16.556 11.067V11.733H16.533Z" fill="#75B6B5"/>
</g>
<defs>
<clipPath id="clip0_41_7884">
<rect width="20" height="20" fill="white"/>
</clipPath>
</defs>
</svg>
