<svg width="24" height="20" viewBox="0 0 24 20" fill="none" xmlns="http://www.w3.org/2000/svg">
<path d="M10.0611 0C7.49861 0.0249644 5.03535 0.943876 3.17542 2.4096C1.31539 3.87531 0.0264094 5.92387 0 8.19945C0 11.8837 1.68418 14.354 3.05207 16.7115C3.17028 16.9166 3.38542 17.0632 3.61963 17.0981C8.87895 17.8828 13.5621 18.4201 17.6702 19.9518C17.8517 20.0188 18.0582 20.0158 18.2377 19.9437C19.2791 19.5311 20.5324 18.7013 21.6024 17.8054C22.5052 17.0155 23.6622 15.9488 23.6836 14.8119C23.1537 11.0096 21.8875 7.36181 19.6691 4.60574C17.4508 1.84991 14.2336 0.0246103 10.0687 0.000174598H10.0607L10.0611 0ZM17.218 4.29293C17.651 4.69181 18.057 5.12224 18.4355 5.59235C20.1837 7.76407 21.3277 10.6787 21.9153 13.8164C17.8335 12.5131 13.2918 11.6683 8.30884 11.6041L7.59316 9.36719C10.8323 7.96881 14.2679 6.34854 17.218 4.29302L17.218 4.29293Z" fill="#101E1E"/>
</svg>
