<svg
  width="20"
  height="20"
  viewBox="0 0 20 20"
  fill="inherit"
  xmlns="http://www.w3.org/2000/svg"
>
<path
    d="M17.5 5.60696C16.9378 5.85727 16.3411 6.02144 15.73 6.09396C16.3735 5.71133 16.8539 5.10563 17.08 4.39196C16.475 4.75047 15.8136 5.00405 15.124 5.14196C14.6615 4.64567 14.0479 4.31628 13.3787 4.20512C12.7095 4.09397 12.0223 4.2073 11.4243 4.52745C10.8262 4.8476 10.3508 5.35658 10.0722 5.9751C9.79364 6.59361 9.72745 7.28691 9.884 7.94696C8.66017 7.8861 7.46289 7.56808 6.37016 7.01362C5.27744 6.45916 4.31379 5.6807 3.542 4.72896C3.27705 5.20084 3.13761 5.7328 3.137 6.27396C3.137 7.33896 3.677 8.28396 4.509 8.83896C4.01829 8.82256 3.5382 8.69175 3.107 8.45696V8.49396C3.10546 9.2043 3.35046 9.89315 3.80018 10.443C4.2499 10.9928 4.87648 11.3696 5.573 11.509C5.12046 11.6279 4.6473 11.646 4.187 11.562C4.38275 12.173 4.76467 12.7075 5.2793 13.0907C5.79392 13.4739 6.4155 13.6866 7.057 13.699C6.41885 14.2012 5.68776 14.5724 4.90572 14.7912C4.12368 15.01 3.30612 15.0721 2.5 14.974C3.90716 15.8758 5.54364 16.3548 7.215 16.354C12.875 16.354 15.963 11.667 15.963 7.60196C15.963 7.46696 15.963 7.33896 15.956 7.20396C16.5636 6.77002 17.0868 6.22881 17.5 5.60696Z"
    fill="inherit"
  />
</svg>
