<svg width="128" height="128" viewBox="0 0 128 128" fill="none" xmlns="http://www.w3.org/2000/svg">
<path fill-rule="evenodd" clip-rule="evenodd" d="M20.6921 49.9176C20.8719 49.1235 21.3147 48.4148 21.9474 47.9081C22.5802 47.4014 23.3653 47.127 24.1734 47.1301H38.2723C40.1485 47.1301 40.9944 46.3102 42.1115 44.7033L48.315 33.6951C48.6177 33.1733 49.0521 32.7416 49.5741 32.444C50.096 32.1463 50.6869 31.9934 51.2866 32.0007H103.127C103.754 31.9856 104.364 32.2069 104.837 32.6215C105.311 33.036 105.614 33.6138 105.686 34.2417C107.769 58.7722 110.415 75.3992 127.149 90.452C127.54 90.8092 127.813 91.2781 127.933 91.796C128.052 92.314 128.012 92.8563 127.817 93.3506C127.623 93.8449 127.283 94.2676 126.844 94.5622C126.405 94.8569 125.887 95.0094 125.36 94.9995H2.63471C2.10746 95.006 1.59069 94.851 1.15281 94.5549C0.714923 94.2588 0.376584 93.8356 0.18258 93.3414C-0.0114235 92.8472 -0.0519402 92.3053 0.0663926 91.7874C0.184725 91.2694 0.456325 90.8 0.845238 90.4411C12.8293 79.6079 17.6337 67.8236 20.1607 52.5631C20.2908 51.7979 20.4535 51.0654 20.6053 50.3221L20.6921 49.9176Z" fill="black"/>
</svg>
