<svg width="132" height="132" viewBox="0 0 132 132" fill="none" xmlns="http://www.w3.org/2000/svg">
<rect width="132" height="132" fill="#101E1E"/>
<path d="M48.25 35.3438C53.7812 32.8438 58.7344 31.5938 63.1094 31.5938C69.0156 31.5938 73.5781 32.9219 76.7969 35.5781C80.0156 38.2344 81.625 42.1562 81.625 47.3438C81.625 52.7188 78.1406 58.2969 71.1719 64.0781C68.1406 66.5781 66.2812 68.25 65.5938 69.0938C64.9375 69.9062 64.4062 70.9062 64 72.0938C63.5938 73.2812 63.3906 74.7656 63.3906 76.5469V79.125H56.9688V76.4531C56.9688 71.0156 58.7031 66.7812 62.1719 63.75L68.3594 58.3125C70.3594 56.625 71.8281 54.9219 72.7656 53.2031C73.7031 51.4531 74.1719 49.5938 74.1719 47.625C74.1719 44.375 73.1406 41.8906 71.0781 40.1719C69.0156 38.4219 66.2031 37.5469 62.6406 37.5469C59.4219 37.5469 55.3594 38.7031 50.4531 41.0156L48.25 35.3438ZM61 88.2656C62.6562 88.2656 64.0469 88.8281 65.1719 89.9531C66.2969 91.0781 66.8594 92.4688 66.8594 94.125C66.8594 95.8125 66.2812 97.2656 65.125 98.4844C64 99.6719 62.625 100.266 61 100.266C59.4062 100.266 58.0469 99.6719 56.9219 98.4844C55.7969 97.2656 55.2344 95.8125 55.2344 94.125C55.2344 92.4375 55.7812 91.0469 56.875 89.9531C58 88.8281 59.375 88.2656 61 88.2656Z" fill="#75B6B5"/>
</svg>
